<svg width="37" height="53" viewBox="0 0 37 53" fill="none" xmlns="http://www.w3.org/2000/svg">
<path d="M0.31356 53V46.158L18.8919 28.3637C20.6688 26.6106 22.1495 25.0533 23.334 23.6917C24.5186 22.3301 25.407 21.0111 25.9993 19.7346C26.5916 18.4581 26.8877 17.0965 26.8877 15.6498C26.8877 13.9989 26.5045 12.5862 25.738 11.4119C24.9715 10.2205 23.9176 9.30138 22.5763 8.65463C21.2349 8.00787 19.7107 7.68449 18.0035 7.68449C16.2441 7.68449 14.7024 8.04191 13.3785 8.75674C12.0546 9.45456 11.0268 10.4502 10.2952 11.7437C9.58098 13.0373 9.22387 14.5776 9.22387 16.3646H0C0 13.0458 0.775188 10.1609 2.32557 7.71002C3.87594 5.25915 6.00989 3.36143 8.7274 2.01686C11.4623 0.672287 14.5979 0 18.1342 0C21.7227 0 24.8757 0.655266 27.5932 1.9658C30.3107 3.27633 32.4185 5.07193 33.9167 7.3526C35.4322 9.63327 36.19 12.2373 36.19 15.1647C36.19 17.122 35.8067 19.0453 35.0403 20.9345C34.2738 22.8237 32.9237 24.9171 30.9901 27.2148C29.0739 29.5125 26.3825 32.2953 22.916 35.5631L13.6921 44.7283V45.0857H37V53H0.31356Z" fill="#F178B6"/>
</svg>
