<svg width="41" height="53" viewBox="0 0 41 53" fill="none" xmlns="http://www.w3.org/2000/svg">
<path d="M20.4319 53C16.5142 53 13.0318 52.3786 9.98468 51.1359C6.95572 49.8932 4.56157 48.1635 2.80224 45.9468C1.0429 43.73 0.108825 41.169 0 38.2638H10.2295C10.3202 39.6576 10.819 40.8752 11.7259 41.9164C12.6328 42.9407 13.8389 43.7384 15.3443 44.3094C16.8497 44.8804 18.5365 45.1659 20.4047 45.1659C22.3998 45.1659 24.1682 44.8468 25.7099 44.2086C27.2516 43.5537 28.4577 42.6469 29.3283 41.4881C30.1989 40.3294 30.6251 38.9943 30.607 37.4829C30.6251 35.9211 30.1898 34.544 29.3011 33.3517C28.4124 32.1594 27.1246 31.2273 25.4378 30.5556C23.7692 29.8839 21.7559 29.548 19.398 29.548H14.4737V22.3436H19.398C21.3387 22.3436 23.0346 22.033 24.4856 21.4116C25.9547 20.7902 27.1065 19.917 27.9408 18.7918C28.7751 17.6499 29.1832 16.3316 29.1651 14.837C29.1832 13.376 28.8295 12.108 28.104 11.0333C27.3967 9.9417 26.39 9.09363 25.0841 8.48907C23.7964 7.88451 22.2819 7.58222 20.5407 7.58222C18.8358 7.58222 17.2578 7.86771 15.8068 8.43869C14.3558 9.00966 13.1859 9.82415 12.2972 10.8821C11.4085 11.9233 10.9369 13.166 10.8825 14.6103H1.16987C1.24242 11.7218 2.14022 9.186 3.86328 7.00285C5.60448 4.80292 7.92608 3.08999 10.8281 1.86407C13.7301 0.621358 16.9857 0 20.5951 0C24.3133 0 27.5418 0.646546 30.2805 1.93964C33.0374 3.21594 35.1686 4.93726 36.674 7.10361C38.1794 9.26996 38.9321 11.663 38.9321 14.2828C38.9502 17.1881 38.0252 19.6231 36.1571 21.5879C34.307 23.5528 31.8766 24.8375 28.8658 25.442V25.8451C32.7835 26.3489 35.7852 27.6923 37.8711 29.8755C39.975 32.0418 41.0179 34.7372 40.9998 37.9615C40.9998 40.85 40.111 43.4362 38.3336 45.7201C36.5742 47.9872 34.1438 49.7673 31.0423 51.0604C27.9589 52.3535 24.4221 53 20.4319 53Z" fill="#F178B6"/>
</svg>
