<svg width="40" height="40" viewBox="0 0 40 40" fill="none" xmlns="http://www.w3.org/2000/svg">
<path fill-rule="evenodd" clip-rule="evenodd" d="M24.9662 31.3417C25.4284 31.4385 25.8066 31.5174 25.8415 31.5234C26.0285 31.5552 26.2992 31.604 26.6252 31.6706C27.2819 31.8049 28.1417 32.0072 28.9881 32.282C29.8549 32.5634 30.6101 32.8901 31.1176 33.2379C31.4533 33.468 31.5512 33.6133 31.5759 33.6604C31.5654 33.9714 31.4268 34.3021 30.9433 34.6916C30.4029 35.1268 29.5368 35.5358 28.3545 35.8743C26.0037 36.5473 22.8803 36.8106 19.9976 36.8106C17.1149 36.8106 13.9915 36.5473 11.6408 35.8743C10.4584 35.5359 9.59236 35.1269 9.05195 34.6916C8.56839 34.3021 8.42977 33.9714 8.41929 33.6603C8.44399 33.6132 8.54184 33.468 8.87752 33.2379C9.38498 32.8901 10.1402 32.5634 11.007 32.282C11.8534 32.0072 12.7132 31.8049 13.37 31.6706C13.696 31.604 13.9666 31.5552 14.1536 31.5234C14.1671 31.5211 14.1778 31.5189 14.1957 31.5152C14.2708 31.4996 14.4726 31.4577 15.5353 31.2744L13.5531 28.3912C13.344 28.4274 13.0673 28.4782 12.7436 28.5444C12.0187 28.6926 11.0364 28.9222 10.0407 29.2454C9.06533 29.5621 7.97845 29.9995 7.10434 30.5987C6.28061 31.1632 5.26064 32.1448 5.26074 33.6212C5.26084 35.1592 6.0402 36.3454 7.08311 37.1854C8.08961 37.996 9.40874 38.5506 10.7797 38.943C13.5355 39.7319 16.991 40.0002 19.9976 40.0002C23.0042 40.0002 26.4597 39.7319 29.2156 38.943C30.5865 38.5505 31.9057 37.996 32.9122 37.1853C33.9551 36.3453 34.7344 35.1591 34.7344 33.621C34.7344 32.1447 33.7145 31.1632 32.8907 30.5986C32.0166 29.9995 30.9298 29.5621 29.9544 29.2454C28.9587 28.9222 27.9764 28.6926 27.2516 28.5444C27.1997 28.5338 27.0949 28.5114 26.9527 28.4807L24.9662 31.3417ZM15.8591 28.0174L17.5149 30.4258L18.4186 29.9C18.5491 29.8811 18.6488 29.8827 18.7236 29.896C18.7905 30.1035 18.8826 30.1198 18.912 30.0762C18.9413 30.0325 18.9079 29.9287 18.7236 29.896C18.7155 29.871 18.7078 29.8432 18.7006 29.8123L20.442 29.2709C20.5563 29.3351 20.9929 29.4821 21.5314 29.6238L23.1623 30.2364L23.3589 29.9532C22.8173 29.9245 22.1146 29.7773 21.5314 29.6238L20.5239 29.2454C20.5239 29.2454 21.5765 29.3685 22.6292 28.8368L22.9049 28.4026C22.9341 28.418 22.967 28.435 23.0028 28.4535C23.2665 28.5897 23.6897 28.8084 23.9635 29.0824L24.719 27.9942C24.1848 27.8782 23.7585 27.7867 23.6818 27.7736C23.6291 27.7647 23.3918 27.8931 23.1555 28.026V27.7736L22.1028 28.3052L22.7178 28.311C22.6906 28.4398 22.661 28.6115 22.6292 28.8368L18.5698 29.2924C18.3724 28.8226 17.9532 28.4701 17.4658 28.3419C17.3819 28.2745 17.2958 28.242 17.2153 28.2302L17.366 27.7736L15.8591 28.0174ZM17.194 28.2949C17.2862 28.3027 17.3771 28.3186 17.4658 28.3419C17.6426 28.4841 17.8093 28.7815 17.8923 29.3684L17.1028 28.571L17.194 28.2949ZM16.8397 28.3051V29.3683L17.1028 28.571L16.8397 28.3051ZM16.8397 28.3051C16.9587 28.288 17.0774 28.285 17.194 28.2949L17.2153 28.2302C17.0091 28.1999 16.8397 28.3051 16.8397 28.3051ZM17.8923 29.3684L18.5698 29.2924C18.6204 29.4126 18.6564 29.5405 18.6753 29.6743C18.6826 29.7259 18.6912 29.7717 18.7006 29.8123L18.4186 29.9L17.8923 29.3684ZM22.7191 28.3052C22.7187 28.3071 22.7182 28.3091 22.7178 28.311L22.7642 28.3115C22.7695 28.3281 22.8223 28.3589 22.9049 28.4026L22.9615 28.3133C22.9615 28.3133 22.9612 28.3104 22.9606 28.3052H23.1555V28.026C23.1134 28.0496 23.0714 28.0734 23.0304 28.0966C22.9983 28.1148 22.9668 28.1326 22.9365 28.1497C22.9024 27.98 22.8332 27.7986 22.7281 28.2639C22.6806 28.2884 22.6468 28.3037 22.6329 28.3052H22.6292C22.6302 28.3053 22.6314 28.3053 22.6329 28.3052H22.7191ZM22.7649 28.3052C22.7636 28.307 22.7634 28.3091 22.7642 28.3115L22.9615 28.3133C22.9392 28.3101 22.919 28.3074 22.9007 28.3052H22.9606C22.9581 28.2827 22.9501 28.2171 22.9365 28.1497C22.8554 28.1954 22.7827 28.2358 22.7281 28.2639C22.7251 28.2771 22.7221 28.2909 22.7191 28.3052H22.7649ZM22.9007 28.3052C22.814 28.2945 22.7721 28.2948 22.7649 28.3052H22.9007ZM23.1509 30.2528L20.5239 29.3684L22.8051 30.7508L23.1509 30.2528ZM20.5239 29.2454L20.442 29.2709C20.3872 29.2402 20.4065 29.2284 20.5239 29.2454Z" fill="#03254D"/>
<path fill-rule="evenodd" clip-rule="evenodd" d="M29.2271 3.60334C24.4215 -1.25055 16.5561 -1.17597 11.7504 3.67792C7.47443 7.99678 6.81023 14.8514 10.2593 19.8683L20.2625 34.4185L30.6009 19.5285C34.0316 14.5872 33.4523 7.87085 29.2271 3.60334ZM20.5266 18.7358C24.0147 18.7358 26.8424 15.8797 26.8424 12.3566C26.8424 8.83353 24.0147 5.97749 20.5266 5.97749C17.0385 5.97749 14.2108 8.83353 14.2108 12.3566C14.2108 15.8797 17.0385 18.7358 20.5266 18.7358Z" fill="#F178B6"/>
</svg>
