<svg width="17" height="18" viewBox="0 0 17 18" fill="none" xmlns="http://www.w3.org/2000/svg">
<path fill-rule="evenodd" clip-rule="evenodd" d="M15 13.5C15 13.7761 14.8288 14 14.6176 14H2.38235C2.17119 14 2 13.7761 2 13.5C2 13.2239 2.17119 13 2.38235 13H14.6176C14.8288 13 15 13.2239 15 13.5Z" fill="#03254D"/>
<path fill-rule="evenodd" clip-rule="evenodd" d="M4.5 11C4.22386 11 4 10.9078 4 10.7941V4.20588C4 4.09218 4.22386 4 4.5 4C4.77614 4 5 4.09218 5 4.20588V10.7941C5 10.9078 4.77614 11 4.5 11Z" fill="#03254D"/>
<path fill-rule="evenodd" clip-rule="evenodd" d="M12.5 11C12.2239 11 12 10.9078 12 10.7941V4.20588C12 4.09218 12.2239 4 12.5 4C12.7761 4 13 4.09218 13 4.20588V10.7941C13 10.9078 12.7761 11 12.5 11Z" fill="#03254D"/>
<path fill-rule="evenodd" clip-rule="evenodd" d="M13 10.5C13 10.7761 12.8815 11 12.7353 11H4.26471C4.11851 11 4 10.7761 4 10.5C4 10.2239 4.11851 10 4.26471 10H12.7353C12.8815 10 13 10.2239 13 10.5Z" fill="#03254D"/>
<path fill-rule="evenodd" clip-rule="evenodd" d="M13 4.5C13 4.77614 12.8815 5 12.7353 5H4.26471C4.11851 5 4 4.77614 4 4.5C4 4.22386 4.11851 4 4.26471 4H12.7353C12.8815 4 13 4.22386 13 4.5Z" fill="#03254D"/>
<path fill-rule="evenodd" clip-rule="evenodd" d="M11 6.5C11 6.77614 10.9341 7 10.8529 7H6.14706C6.06584 7 6 6.77614 6 6.5C6 6.22386 6.06584 6 6.14706 6H10.8529C10.9341 6 11 6.22386 11 6.5Z" fill="#03254D"/>
<path fill-rule="evenodd" clip-rule="evenodd" d="M11 8.5C11 8.77614 10.9341 9 10.8529 9H6.14706C6.06584 9 6 8.77614 6 8.5C6 8.22386 6.06584 8 6.14706 8H10.8529C10.9341 8 11 8.22386 11 8.5Z" fill="#03254D"/>
<path fill-rule="evenodd" clip-rule="evenodd" d="M4.77229 10.3347C5.03628 10.5195 5.22007 10.7125 5.1828 10.7658L3.02346 13.8496C2.98619 13.9028 2.74197 13.7961 2.47799 13.6113C2.21401 13.4265 2.03021 13.2335 2.06748 13.1802L4.22683 10.0964C4.26409 10.0432 4.50831 10.1499 4.77229 10.3347Z" fill="#03254D"/>
<path fill-rule="evenodd" clip-rule="evenodd" d="M12.2277 10.3347C11.9637 10.5195 11.7799 10.7125 11.8172 10.7658L13.9765 13.8496C14.0138 13.9028 14.258 13.7961 14.522 13.6113C14.786 13.4265 14.9698 13.2335 14.9325 13.1802L12.7732 10.0964C12.7359 10.0432 12.4917 10.1499 12.2277 10.3347Z" fill="#03254D"/>
</svg>
