<svg width="1164" height="235" viewBox="0 0 1164 235" fill="none" xmlns="http://www.w3.org/2000/svg">
<path d="M448.218 134.909C441.23 107.394 468.407 94.3735 492.231 77.4617C516.054 60.5499 491.13 19.5723 514.462 7.97477C541.559 -5.49424 566.295 32.7012 586.928 34.8195C623.493 38.5736 645.15 6.58607 661.008 30.5201C676.865 54.4541 648.2 73.6148 656.516 102.932C664.832 132.25 693.23 142.377 683.276 169.023C672.316 198.36 639.418 179.629 608.624 180.646C583.962 182.523 582.7 223.498 552.406 230.523C522.111 237.548 507.71 206.305 506.088 173.4C504.465 140.495 456.434 167.258 448.218 134.909Z" fill="#F178B6"/>
<path d="M388.315 65.3303C399.829 65.3303 409.063 68.6933 416.017 75.4193C422.971 82.1453 426.448 92.1203 426.448 105.344V157.67H405.073V108.08C405.073 100.1 403.192 94.1153 399.43 90.1253C395.668 86.0213 390.31 83.9693 383.356 83.9693C375.49 83.9693 369.277 86.3633 364.717 91.1513C360.157 95.8253 357.877 102.608 357.877 111.5V157.67H336.502V66.3563H356.851V78.1553C360.385 73.9373 364.831 70.7453 370.189 68.5793C375.547 66.4133 381.589 65.3303 388.315 65.3303Z" fill="#03254D"/>
<path d="M289.3 79.6943C295.456 70.1183 306.286 65.3303 321.79 65.3303V85.6793C319.966 85.3373 318.313 85.1663 316.831 85.1663C308.509 85.1663 302.011 87.6173 297.337 92.5193C292.663 97.3073 290.326 104.261 290.326 113.381V157.67H268.951V66.3563H289.3V79.6943Z" fill="#03254D"/>
<path d="M244.404 66.3563V157.67H224.055V145.871C220.521 150.203 216.132 153.452 210.888 155.618C205.758 157.784 200.058 158.867 193.788 158.867C184.896 158.867 176.916 156.929 169.848 153.053C162.894 149.177 157.422 143.705 153.432 136.637C149.556 129.569 147.618 121.361 147.618 112.013C147.618 102.665 149.556 94.5143 153.432 87.5603C157.422 80.4923 162.894 75.0203 169.848 71.1443C176.916 67.2683 184.896 65.3303 193.788 65.3303C199.716 65.3303 205.131 66.3563 210.033 68.4083C215.049 70.4603 219.381 73.4813 223.029 77.4713V66.3563H244.404ZM196.182 140.57C204.048 140.57 210.546 137.948 215.676 132.704C220.806 127.46 223.371 120.563 223.371 112.013C223.371 103.463 220.806 96.5663 215.676 91.3223C210.546 86.0783 204.048 83.4563 196.182 83.4563C188.316 83.4563 181.818 86.0783 176.688 91.3223C171.672 96.5663 169.164 103.463 169.164 112.013C169.164 120.563 171.672 127.46 176.688 132.704C181.818 137.948 188.316 140.57 196.182 140.57Z" fill="#03254D"/>
<path d="M95.7895 140.741C105.708 140.741 113.973 137.435 120.585 130.823L131.871 143.99C127.881 148.892 122.751 152.597 116.481 155.105C110.211 157.613 103.143 158.867 95.2765 158.867C85.2445 158.867 76.4095 156.872 68.7715 152.882C61.1335 148.892 55.2055 143.363 50.9875 136.295C46.8835 129.113 44.8315 121.019 44.8315 112.013C44.8315 103.121 46.8265 95.1413 50.8165 88.0733C54.9205 80.8913 60.5065 75.3053 67.5745 71.3153C74.7565 67.3253 82.8505 65.3303 91.8565 65.3303C100.407 65.3303 108.159 67.2113 115.113 70.9733C122.181 74.6213 127.767 79.9223 131.871 86.8763C135.975 93.7163 138.027 101.753 138.027 110.987L68.0875 124.667C70.2535 129.911 73.7305 133.901 78.5185 136.637C83.3065 139.373 89.0635 140.741 95.7895 140.741ZM91.8565 82.4303C83.9905 82.4303 77.6065 84.9953 72.7045 90.1253C67.9165 95.2553 65.5225 102.152 65.5225 110.816V110.987L117.165 101.069C115.683 95.4833 112.662 90.9803 108.102 87.5603C103.656 84.1403 98.2405 82.4303 91.8565 82.4303Z" fill="#03254D"/>
<path d="M30.096 158.867C20.634 158.867 13.224 156.302 7.866 151.172C2.622 145.928 0 138.575 0 129.113V30.7883H21.375V127.574C21.375 136.694 25.65 141.254 34.2 141.254C37.05 141.254 39.615 140.684 41.895 139.544L42.921 156.644C38.931 158.126 34.656 158.867 30.096 158.867Z" fill="#03254D"/>
<path d="M608.624 165.298L595.6 152.718C585.931 161.006 574.337 165.15 560.82 165.15C553.617 165.15 547.155 163.966 541.432 161.598C535.709 159.23 531.22 155.974 527.964 151.83C524.708 147.588 523.08 142.802 523.08 137.474C523.08 131.061 524.955 125.437 528.704 120.602C532.453 115.669 538.571 110.834 547.056 106.098C542.912 101.954 539.952 98.1062 538.176 94.5542C536.4 90.9036 535.512 87.1542 535.512 83.3062C535.512 76.0049 538.225 70.1342 543.652 65.6942C549.177 61.1556 556.479 58.8862 565.556 58.8862C573.943 58.8862 580.652 60.9582 585.684 65.1022C590.716 69.1476 593.232 74.6729 593.232 81.6782C593.232 87.0062 591.555 91.7422 588.2 95.8862C584.944 100.03 579.567 104.224 572.068 108.466L594.416 129.778C596.883 124.944 598.807 119.122 600.188 112.314L615.136 117.198C613.163 126.374 610.055 134.268 605.812 140.878L618.836 153.31L608.624 165.298ZM565.556 72.0582C561.511 72.0582 558.304 73.0942 555.936 75.1662C553.568 77.1396 552.384 79.7542 552.384 83.0102C552.384 85.3782 553.025 87.6476 554.308 89.8182C555.591 91.8902 558.057 94.7516 561.708 98.4022C567.628 95.1462 571.723 92.3342 573.992 89.9662C576.36 87.4996 577.544 84.8356 577.544 81.9742C577.544 78.9156 576.459 76.4982 574.288 74.7222C572.216 72.9462 569.305 72.0582 565.556 72.0582ZM562.152 150.054C570.736 150.054 578.235 147.44 584.648 142.21L557.268 116.014C551.348 119.27 547.155 122.428 544.688 125.486C542.32 128.446 541.136 131.801 541.136 135.55C541.136 139.892 543.06 143.394 546.908 146.058C550.756 148.722 555.837 150.054 562.152 150.054Z" fill="white"/>
<path d="M1163.01 66.3564V116.801C1163.01 130.139 1159.54 140.513 1152.58 147.923C1145.63 155.219 1135.65 158.867 1122.66 158.867C1108.64 158.867 1098.55 154.136 1092.39 144.674C1089.2 149.462 1085.1 153.053 1080.08 155.447C1075.18 157.727 1069.19 158.867 1062.12 158.867C1049.13 158.867 1039.15 155.219 1032.2 147.923C1025.36 140.513 1021.94 130.139 1021.94 116.801V66.3564H1043.31V114.92C1043.31 123.584 1044.8 129.968 1047.76 134.072C1050.84 138.176 1055.68 140.228 1062.3 140.228C1068.91 140.228 1073.81 138.176 1077 134.072C1080.19 129.854 1081.79 123.47 1081.79 114.92V66.3564H1103.16V114.92C1103.16 123.47 1104.76 129.854 1107.95 134.072C1111.14 138.176 1116.05 140.228 1122.66 140.228C1129.27 140.228 1134.06 138.176 1137.02 134.072C1140.1 129.968 1141.64 123.584 1141.64 114.92V66.3564H1163.01Z" fill="#03254D"/>
<path d="M950.029 158.867C940.795 158.867 932.473 156.872 925.063 152.882C917.653 148.892 911.839 143.363 907.621 136.295C903.517 129.113 901.465 121.019 901.465 112.013C901.465 103.007 903.517 94.9703 907.621 87.9023C911.839 80.8343 917.653 75.3053 925.063 71.3153C932.473 67.3253 940.795 65.3303 950.029 65.3303C959.377 65.3303 967.756 67.3253 975.166 71.3153C982.576 75.3053 988.333 80.8343 992.437 87.9023C996.655 94.9703 998.764 103.007 998.764 112.013C998.764 121.019 996.655 129.113 992.437 136.295C988.333 143.363 982.576 148.892 975.166 152.882C967.756 156.872 959.377 158.867 950.029 158.867ZM950.029 140.57C957.895 140.57 964.393 137.948 969.523 132.704C974.653 127.46 977.218 120.563 977.218 112.013C977.218 103.463 974.653 96.5663 969.523 91.3223C964.393 86.0783 957.895 83.4563 950.029 83.4563C942.163 83.4563 935.665 86.0783 930.535 91.3223C925.519 96.5663 923.011 103.463 923.011 112.013C923.011 120.563 925.519 127.46 930.535 132.704C935.665 137.948 942.163 140.57 950.029 140.57Z" fill="#03254D"/>
<path d="M855.781 79.6943C861.937 70.1183 872.767 65.3303 888.271 65.3303V85.6793C886.447 85.3373 884.794 85.1663 883.312 85.1663C874.99 85.1663 868.492 87.6173 863.818 92.5193C859.144 97.3073 856.807 104.261 856.807 113.381V157.67H835.432V66.3563H855.781V79.6943Z" fill="#03254D"/>
<path d="M803.911 66.3563V143.819C803.911 175.967 787.495 192.041 754.663 192.041C745.885 192.041 737.563 190.901 729.697 188.621C721.831 186.455 715.333 183.263 710.203 179.045L719.779 162.971C723.769 166.277 728.785 168.899 734.827 170.837C740.983 172.889 747.196 173.915 753.466 173.915C763.498 173.915 770.851 171.635 775.525 167.075C780.199 162.515 782.536 155.561 782.536 146.213V141.425C778.888 145.415 774.442 148.436 769.198 150.488C763.954 152.54 758.197 153.566 751.927 153.566C743.263 153.566 735.397 151.742 728.329 148.094C721.375 144.332 715.846 139.088 711.742 132.362C707.752 125.636 705.757 117.941 705.757 109.277C705.757 100.613 707.752 92.9753 711.742 86.3633C715.846 79.6373 721.375 74.4503 728.329 70.8023C735.397 67.1543 743.263 65.3303 751.927 65.3303C758.539 65.3303 764.524 66.4133 769.882 68.5793C775.354 70.7453 779.914 74.0513 783.562 78.4973V66.3563H803.911ZM755.176 135.44C763.27 135.44 769.882 133.046 775.012 128.258C780.256 123.356 782.878 117.029 782.878 109.277C782.878 101.639 780.256 95.4263 775.012 90.6383C769.882 85.8503 763.27 83.4563 755.176 83.4563C746.968 83.4563 740.242 85.8503 734.998 90.6383C729.868 95.4263 727.303 101.639 727.303 109.277C727.303 117.029 729.868 123.356 734.998 128.258C740.242 133.046 746.968 135.44 755.176 135.44Z" fill="#03254D"/>
</svg>
