<svg width="17" height="22" viewBox="0 0 17 22" fill="none" xmlns="http://www.w3.org/2000/svg">
<path fill-rule="evenodd" clip-rule="evenodd" d="M14 1H3C1.89543 1 1 1.89543 1 3V19C1 20.1046 1.89543 21 3 21H11C13.7614 21 16 18.7614 16 16V3C16 1.89543 15.1046 1 14 1ZM3 0C1.34315 0 0 1.34315 0 3V19C0 20.6569 1.34315 22 3 22H11C14.3137 22 17 19.3137 17 16V3C17 1.34315 15.6569 0 14 0H3Z" fill="#03254D"/>
<path fill-rule="evenodd" clip-rule="evenodd" d="M13 5.5H4V4.5H13V5.5Z" fill="#03254D"/>
<path fill-rule="evenodd" clip-rule="evenodd" d="M13 9.5H4V8.5H13V9.5Z" fill="#03254D"/>
<path fill-rule="evenodd" clip-rule="evenodd" d="M13 13.5H4V12.5H13V13.5Z" fill="#03254D"/>
<path fill-rule="evenodd" clip-rule="evenodd" d="M13.4678 18.0489C14.0313 18.0832 14.7102 18.0584 15.3171 17.8954C15.7279 17.7851 16.1445 17.6012 16.4643 17.2926C16.7977 16.9709 16.9999 16.5373 16.9999 16H15.9999C15.9999 16.2627 15.9104 16.4374 15.7699 16.573C15.6157 16.7217 15.3761 16.8441 15.0577 16.9296C14.4175 17.1016 13.6165 17.083 13.0706 17.005L12.4999 16.9235V17.5C12.4999 18.5479 12.0671 19.3463 11.5123 19.9307C10.9494 20.5236 10.2722 20.8822 9.8418 21.0257L10.158 21.9743C10.7276 21.7845 11.5504 21.343 12.2375 20.6193C12.8355 19.9894 13.3387 19.1357 13.4678 18.0489Z" fill="#03254D"/>
</svg>
