<svg width="17" height="18" viewBox="0 0 17 18" fill="none" xmlns="http://www.w3.org/2000/svg">
<path fill-rule="evenodd" clip-rule="evenodd" d="M3.5 15C3.22386 15 3 14.8815 3 14.7353V6.26471C3 6.11851 3.22386 6 3.5 6C3.77614 6 4 6.11851 4 6.26471V14.7353C4 14.8815 3.77614 15 3.5 15Z" fill="#03254D"/>
<path fill-rule="evenodd" clip-rule="evenodd" d="M13.5 15C13.2239 15 13 14.8815 13 14.7353V6.26471C13 6.11851 13.2239 6 13.5 6C13.7761 6 14 6.11851 14 6.26471V14.7353C14 14.8815 13.7761 15 13.5 15Z" fill="#03254D"/>
<path fill-rule="evenodd" clip-rule="evenodd" d="M10.5 13C10.2239 13 10 12.9341 10 12.8529V8.14706C10 8.06584 10.2239 8 10.5 8C10.7761 8 11 8.06584 11 8.14706V12.8529C11 12.9341 10.7761 13 10.5 13Z" fill="#03254D"/>
<path fill-rule="evenodd" clip-rule="evenodd" d="M6.5 13C6.22386 13 6 12.9341 6 12.8529V8.14706C6 8.06584 6.22386 8 6.5 8C6.77614 8 7 8.06584 7 8.14706V12.8529C7 12.9341 6.77614 13 6.5 13Z" fill="#03254D"/>
<path fill-rule="evenodd" clip-rule="evenodd" d="M6 8.5C6 8.22386 6.06585 8 6.14706 8H10.8529C10.9342 8 11 8.22386 11 8.5C11 8.77614 10.9342 9 10.8529 9H6.14706C6.06585 9 6 8.77614 6 8.5Z" fill="#03254D"/>
<path fill-rule="evenodd" clip-rule="evenodd" d="M6 12.5C6 12.2239 6.06585 12 6.14706 12H10.8529C10.9342 12 11 12.2239 11 12.5C11 12.7761 10.9342 13 10.8529 13H6.14706C6.06585 13 6 12.7761 6 12.5Z" fill="#03254D"/>
<path fill-rule="evenodd" clip-rule="evenodd" d="M8.70191 3.43301C8.83998 3.67215 8.88011 3.90748 8.79156 3.9586L3.66035 6.92111C3.57179 6.97224 3.38807 6.81982 3.25 6.58067C3.11193 6.34153 3.07179 6.10621 3.16035 6.05508L8.29156 3.09257C8.38011 3.04145 8.56384 3.19386 8.70191 3.43301Z" fill="#03254D"/>
<path fill-rule="evenodd" clip-rule="evenodd" d="M8.24999 3.43301C8.11192 3.67215 8.07179 3.90748 8.16034 3.9586L13.2916 6.92111C13.3801 6.97224 13.5638 6.81982 13.7019 6.58067C13.84 6.34153 13.8801 6.10621 13.7916 6.05508L8.66034 3.09257C8.57179 3.04145 8.38806 3.19386 8.24999 3.43301Z" fill="#03254D"/>
<path fill-rule="evenodd" clip-rule="evenodd" d="M15 14.5C15 14.7761 14.8288 15 14.6176 15H2.38235C2.17119 15 2 14.7761 2 14.5C2 14.2239 2.17119 14 2.38235 14H14.6176C14.8288 14 15 14.2239 15 14.5Z" fill="#03254D"/>
</svg>
