<svg width="38" height="30" viewBox="0 0 38 30" fill="none" xmlns="http://www.w3.org/2000/svg">
<path fill-rule="evenodd" clip-rule="evenodd" d="M-1.74845e-07 2C-7.8281e-08 0.89543 1.34315 1.17422e-07 3 2.62268e-07L35 3.0598e-06C36.6569 3.20464e-06 38 0.895433 38 2C38 3.10457 36.6569 4 35 4L3 4C1.34315 4 -2.7141e-07 3.10457 -1.74845e-07 2Z" fill="#03254D"/>
<path fill-rule="evenodd" clip-rule="evenodd" d="M-1.74845e-07 15C-7.8281e-08 13.8954 1.34315 13 3 13L35 13C36.6569 13 38 13.8954 38 15C38 16.1046 36.6569 17 35 17L3 17C1.34315 17 -2.7141e-07 16.1046 -1.74845e-07 15Z" fill="#03254D"/>
<path fill-rule="evenodd" clip-rule="evenodd" d="M-1.74845e-07 28C-7.8281e-08 26.8954 1.34315 26 3 26L35 26C36.6569 26 38 26.8954 38 28C38 29.1046 36.6569 30 35 30L3 30C1.34315 30 -2.7141e-07 29.1046 -1.74845e-07 28Z" fill="#03254D"/>
</svg>
