<svg width="17" height="18" viewBox="0 0 17 18" fill="none" xmlns="http://www.w3.org/2000/svg">
<path fill-rule="evenodd" clip-rule="evenodd" d="M15 14.5C15 14.7761 14.8288 15 14.6176 15H2.38235C2.17119 15 2 14.7761 2 14.5C2 14.2239 2.17119 14 2.38235 14H14.6176C14.8288 14 15 14.2239 15 14.5Z" fill="#03254D"/>
<path fill-rule="evenodd" clip-rule="evenodd" d="M8.5 9C11.5376 9 14 11.2386 14 14C14 14.3425 13.9621 14.6769 13.89 15H12.8555C12.9501 14.6775 13 14.3419 13 14C13 11.8784 11.0771 10 8.5 10C5.92289 10 4 11.8784 4 14C4 14.3419 4.04995 14.6775 4.14453 15H3.11002C3.03787 14.6769 3 14.3425 3 14C3 11.2386 5.46243 9 8.5 9Z" fill="#03254D"/>
<circle cx="8.5" cy="6.5" r="3" stroke="#03254D"/>
</svg>
