<svg width="17" height="18" viewBox="0 0 17 18" fill="none" xmlns="http://www.w3.org/2000/svg">
<path fill-rule="evenodd" clip-rule="evenodd" d="M3.9851 11.7417C3.78551 11.5509 3.74203 11.2724 3.88795 11.1198L12.3435 2.27636C12.4894 2.12374 12.7695 2.15471 12.9691 2.34555C13.1687 2.53638 13.2122 2.81482 13.0663 2.96744L4.61073 11.8109C4.46481 11.9635 4.18469 11.9325 3.9851 11.7417Z" fill="#03254D"/>
<path fill-rule="evenodd" clip-rule="evenodd" d="M6.15343 13.8149C5.95385 13.6241 5.91037 13.3456 6.05628 13.193L14.5118 4.34959C14.6578 4.19696 14.9379 4.22794 15.1375 4.41877C15.337 4.60961 15.3805 4.88804 15.2346 5.04067L6.77906 13.8841C6.63315 14.0367 6.35302 14.0057 6.15343 13.8149Z" fill="#03254D"/>
<path fill-rule="evenodd" clip-rule="evenodd" d="M6.86037 13.7991C6.66954 13.9987 6.47675 14.1241 6.4298 14.0792L3.70874 11.4775C3.66178 11.4326 3.77842 11.2343 3.96925 11.0348C4.16008 10.8352 4.35286 10.7098 4.39982 10.7547L7.12088 13.3564C7.16783 13.4013 7.0512 13.5995 6.86037 13.7991Z" fill="#03254D"/>
<path fill-rule="evenodd" clip-rule="evenodd" d="M15.1533 5.1257C14.9625 5.32529 14.7697 5.45068 14.7227 5.40579L12.0017 2.80408C11.9547 2.75918 12.0714 2.56098 12.2622 2.36139C12.453 2.1618 12.6458 2.0364 12.6928 2.0813L15.4138 4.68301C15.4608 4.7279 15.3441 4.92611 15.1533 5.1257Z" fill="#03254D"/>
<path fill-rule="evenodd" clip-rule="evenodd" d="M13.0801 7.29405C12.8892 7.49364 12.6964 7.61904 12.6495 7.57414L9.92844 4.97243C9.88148 4.92753 9.99811 4.72933 10.1889 4.52974C10.3798 4.33015 10.5726 4.20475 10.6195 4.24965L13.3406 6.85136C13.3875 6.89626 13.2709 7.09446 13.0801 7.29405Z" fill="#03254D"/>
<path fill-rule="evenodd" clip-rule="evenodd" d="M6.45201 13.5865C6.52029 13.8529 6.53312 14.0797 6.48067 14.0931L3.4414 14.8723C3.38895 14.8858 3.29107 14.6808 3.22279 14.4145C3.15451 14.1481 3.14167 13.9213 3.19413 13.9079L6.2334 13.1287C6.28584 13.1152 6.38373 13.3202 6.45201 13.5865Z" fill="#03254D"/>
<path fill-rule="evenodd" clip-rule="evenodd" d="M4.16602 11.4769C3.91219 11.4238 3.69753 11.4232 3.68659 11.4756L3.05207 14.51C3.04111 14.5623 3.23801 14.6478 3.49184 14.7009C3.74567 14.754 3.96032 14.7546 3.97128 14.7022L4.6058 11.6678C4.61675 11.6155 4.41985 11.53 4.16602 11.4769Z" fill="#03254D"/>
<path fill-rule="evenodd" clip-rule="evenodd" d="M4.17714 13.7131C4.07331 13.6133 3.97612 13.5458 3.96005 13.5625L3.0291 14.5302C3.01304 14.5469 3.08418 14.6414 3.18801 14.7413C3.29184 14.8412 3.38903 14.9086 3.4051 14.8919L4.33605 13.9242C4.35211 13.9076 4.28097 13.813 4.17714 13.7131Z" fill="#03254D"/>
</svg>
