<svg width="40" height="40" viewBox="0 0 40 40" fill="none" xmlns="http://www.w3.org/2000/svg">
<g clip-path="url(#clip0_118_334)">
<path d="M38.4886 27.8983C39.4545 28.8668 39.9969 30.1788 39.9969 31.5466C39.9969 32.9145 39.4545 34.2265 38.4886 35.195L36.972 36.9433C23.322 50.0117 -9.8947 16.8033 2.97197 3.10998L4.88864 1.44331C5.85825 0.504438 7.15852 -0.0149421 8.50814 -0.00246586C9.85776 0.0100104 11.1482 0.55334 12.1003 1.50998C12.152 1.56164 15.2403 5.57331 15.2403 5.57331C16.1567 6.53602 16.6668 7.81486 16.6646 9.14398C16.6625 10.4731 16.1482 11.7503 15.2286 12.71L13.2986 15.1366C14.3667 17.7318 15.9371 20.0904 17.9195 22.0768C19.9019 24.0632 22.2573 25.6383 24.8503 26.7116L27.292 24.77C28.2518 23.8512 29.5287 23.3375 30.8575 23.3356C32.1862 23.3337 33.4646 23.8439 34.427 24.76C34.427 24.76 38.437 27.8466 38.4886 27.8983ZM36.1953 30.3216C36.1953 30.3216 32.207 27.2533 32.1553 27.2016C31.8119 26.8612 31.348 26.6702 30.8645 26.6702C30.3809 26.6702 29.917 26.8612 29.5736 27.2016C29.5286 27.2483 26.167 29.9266 26.167 29.9266C25.9404 30.107 25.6708 30.2252 25.3847 30.2696C25.0986 30.314 24.8059 30.2831 24.5353 30.18C21.1761 28.9293 18.1249 26.9712 15.5884 24.4384C13.0519 21.9057 11.0893 18.8574 9.83364 15.5C9.7223 15.2257 9.686 14.9268 9.72848 14.6339C9.77095 14.341 9.89066 14.0646 10.0753 13.8333C10.0753 13.8333 12.7536 10.47 12.7986 10.4266C13.1391 10.0833 13.3301 9.61934 13.3301 9.13581C13.3301 8.65228 13.1391 8.18833 12.7986 7.84498C12.747 7.79498 9.67864 3.80331 9.67864 3.80331C9.33014 3.49082 8.87531 3.32347 8.40738 3.33555C7.93946 3.34764 7.49387 3.53825 7.16197 3.86831L5.2453 5.53498C-4.15803 16.8416 24.627 44.03 34.5353 34.6666L36.0536 32.9166C36.4094 32.5871 36.6231 32.1321 36.6496 31.6478C36.676 31.1636 36.5131 30.688 36.1953 30.3216Z" fill="#03254D"/>
<path d="M22.1551 0.488155C21.8426 0.800716 21.667 1.22464 21.667 1.66667C21.667 2.10869 21.8426 2.53262 22.1551 2.84518C22.4677 3.15774 22.8916 3.33333 23.3337 3.33333C26.8687 3.3373 30.2577 4.74334 32.7574 7.24296C35.257 9.74259 36.663 13.1317 36.667 16.6667C36.667 17.1087 36.8426 17.5326 37.1551 17.8452C37.4677 18.1577 37.8916 18.3333 38.3337 18.3333C38.7757 18.3333 39.1996 18.1577 39.5122 17.8452C39.8247 17.5326 40.0003 17.1087 40.0003 16.6667C39.9955 12.2479 38.238 8.01147 35.1134 4.88691C31.9889 1.76236 27.7524 0.00485266 23.3337 0C22.8916 0 22.4677 0.175595 22.1551 0.488155Z" fill="#F178B6"/>
<path d="M28.0477 11.9526C26.7975 10.7024 25.1018 10 23.3337 10C22.8916 10 22.4677 9.8244 22.1551 9.51184C21.8426 9.19928 21.667 8.77536 21.667 8.33333C21.667 7.89131 21.8426 7.46738 22.1551 7.15482C22.4677 6.84226 22.8916 6.66667 23.3337 6.66667C25.985 6.66931 28.527 7.72373 30.4018 9.59852C32.2766 11.4733 33.331 14.0153 33.3337 16.6667C33.3337 17.1087 33.1581 17.5326 32.8455 17.8452C32.5329 18.1577 32.109 18.3333 31.667 18.3333C31.225 18.3333 30.801 18.1577 30.4885 17.8452C30.1759 17.5326 30.0003 17.1087 30.0003 16.6667C30.0003 14.8986 29.2979 13.2029 28.0477 11.9526Z" fill="#F178B6"/>
</g>
<defs>
<clipPath id="clip0_118_334">
<rect width="40" height="40" fill="white"/>
</clipPath>
</defs>
</svg>
