<svg width="18" height="18" viewBox="0 0 18 18" fill="none" xmlns="http://www.w3.org/2000/svg">
<path fill-rule="evenodd" clip-rule="evenodd" d="M9 0.5C9.27614 0.5 9.5 0.723858 9.5 1V17C9.5 17.2761 9.27614 17.5 9 17.5C8.72386 17.5 8.5 17.2761 8.5 17V1C8.5 0.723858 8.72386 0.5 9 0.5Z" fill="white"/>
<path fill-rule="evenodd" clip-rule="evenodd" d="M17.5 9C17.5 9.27614 17.2761 9.5 17 9.5L1 9.5C0.723858 9.5 0.5 9.27614 0.5 9C0.5 8.72386 0.723858 8.5 1 8.5L17 8.5C17.2761 8.5 17.5 8.72386 17.5 9Z" fill="white"/>
</svg>
