<svg width="17" height="18" viewBox="0 0 17 18" fill="none" xmlns="http://www.w3.org/2000/svg">
<path fill-rule="evenodd" clip-rule="evenodd" d="M8.54147 3.06152C8.28002 2.96636 8.04539 2.95151 8.01743 3.02832L6.3973 7.4796C6.36934 7.55643 6.55862 7.69585 6.82008 7.79101C7.08153 7.88617 7.31616 7.90104 7.34412 7.82422L8.96425 3.37293C8.99221 3.29612 8.80293 3.15668 8.54147 3.06152Z" fill="#03254D"/>
<path fill-rule="evenodd" clip-rule="evenodd" d="M8.4479 2.93757C8.21386 2.93707 8.02408 2.95668 8.02403 2.98136L8.02096 4.41178C8.0209 4.43646 8.21059 4.45688 8.44463 4.45739C8.67868 4.45789 8.86845 4.43828 8.8685 4.4136L8.87158 2.98318C8.87163 2.9585 8.68194 2.93808 8.4479 2.93757Z" fill="#03254D"/>
<path fill-rule="evenodd" clip-rule="evenodd" d="M7.33786 7.37009C7.34103 7.08986 7.27181 6.86188 7.18329 6.86088L2.05394 6.80304C1.96541 6.80204 1.89108 7.0284 1.88792 7.30863C1.88476 7.58885 1.95397 7.81683 2.04249 7.81783L7.17185 7.87568C7.26036 7.87668 7.3347 7.65032 7.33786 7.37009Z" fill="#03254D"/>
<path fill-rule="evenodd" clip-rule="evenodd" d="M6.70008 10.367C6.85336 10.1373 6.91819 9.9114 6.84492 9.86251L2.59884 7.02921C2.52556 6.98032 2.3419 7.12688 2.18863 7.35658C2.03536 7.58628 1.97051 7.81213 2.04379 7.86103L6.28987 10.6943C6.36314 10.7432 6.54681 10.5967 6.70008 10.367Z" fill="#03254D"/>
<path fill-rule="evenodd" clip-rule="evenodd" d="M6.4119 9.76238C6.14998 9.67491 5.91833 9.66186 5.8945 9.73321L4.51351 13.8682C4.48968 13.9396 4.68268 14.0683 4.9446 14.1558C5.20652 14.2433 5.43818 14.2563 5.46201 14.185L6.843 10.05C6.86683 9.97863 6.67382 9.84986 6.4119 9.76238Z" fill="#03254D"/>
<path fill-rule="evenodd" clip-rule="evenodd" d="M8.78899 11.4293C8.62794 11.2046 8.44347 11.061 8.37698 11.1087L4.52387 13.8697C4.45737 13.9174 4.53401 14.1382 4.69506 14.363C4.85611 14.5877 5.04057 14.7313 5.10707 14.6836L8.96018 11.9226C9.02667 11.8749 8.95004 11.6541 8.78899 11.4293Z" fill="#03254D"/>
<path fill-rule="evenodd" clip-rule="evenodd" d="M8.35415 3.04723C8.61967 2.96407 8.85453 2.95927 8.87871 3.03648L10.28 7.51084C10.3042 7.58806 10.1086 7.71807 9.84304 7.80123C9.57752 7.88438 9.34267 7.8892 9.31848 7.81197L7.91718 3.33762C7.893 3.26041 8.08864 3.13038 8.35415 3.04723Z" fill="#03254D"/>
<path fill-rule="evenodd" clip-rule="evenodd" d="M9.43612 7.34281C9.43296 7.06258 9.50218 6.8346 9.59069 6.8336L14.72 6.77575C14.8086 6.77476 14.8829 7.00112 14.8861 7.28134C14.8892 7.56157 14.82 7.78955 14.7315 7.79055L9.60214 7.8484C9.51362 7.8494 9.43928 7.62303 9.43612 7.34281Z" fill="#03254D"/>
<path fill-rule="evenodd" clip-rule="evenodd" d="M10.0739 10.3397C9.92063 10.11 9.8558 9.88412 9.92907 9.83523L14.1751 7.00193C14.2484 6.95303 14.4321 7.0996 14.5854 7.3293C14.7386 7.559 14.8035 7.78485 14.7302 7.83375L10.4841 10.667C10.4108 10.7159 10.2272 10.5694 10.0739 10.3397Z" fill="#03254D"/>
<path fill-rule="evenodd" clip-rule="evenodd" d="M10.3621 9.73508C10.624 9.64761 10.8557 9.63456 10.8795 9.70591L12.2605 13.8409C12.2843 13.9123 12.0913 14.041 11.8294 14.1285C11.5675 14.216 11.3358 14.229 11.312 14.1577L9.93099 10.0227C9.90716 9.95134 10.1002 9.82256 10.3621 9.73508Z" fill="#03254D"/>
<path fill-rule="evenodd" clip-rule="evenodd" d="M8.30003 11.6278C8.46107 11.403 8.6414 11.2565 8.70277 11.3005L12.2594 13.8491C12.3208 13.8931 12.24 14.1109 12.0789 14.3357C11.9179 14.5604 11.7376 14.7069 11.6762 14.6629L8.11957 12.1144C8.05819 12.0704 8.13898 11.8525 8.30003 11.6278Z" fill="#03254D"/>
</svg>
