<svg width="17" height="18" viewBox="0 0 17 18" fill="none" xmlns="http://www.w3.org/2000/svg">
<path fill-rule="evenodd" clip-rule="evenodd" d="M2.5 15C2.22386 15 2 14.8683 2 14.7059V5.29412C2 5.13168 2.22386 5 2.5 5C2.77614 5 3 5.13168 3 5.29412V14.7059C3 14.8683 2.77614 15 2.5 15Z" fill="#03254D"/>
<path fill-rule="evenodd" clip-rule="evenodd" d="M14.5 15C14.2239 15 14 14.8683 14 14.7059V5.29412C14 5.13168 14.2239 5 14.5 5C14.7761 5 15 5.13168 15 5.29412V14.7059C15 14.8683 14.7761 15 14.5 15Z" fill="#03254D"/>
<path fill-rule="evenodd" clip-rule="evenodd" d="M6 4.5C6 5.32842 5.97366 6 5.94118 6H4.05882C4.02634 6 4 5.32842 4 4.5C4 3.67158 4.02634 3 4.05882 3H5.94118C5.97366 3 6 3.67158 6 4.5Z" fill="#03254D"/>
<path fill-rule="evenodd" clip-rule="evenodd" d="M15 5.5C15 5.77614 14.8288 6 14.6176 6H2.38235C2.17119 6 2 5.77614 2 5.5C2 5.22386 2.17119 5 2.38235 5H14.6176C14.8288 5 15 5.22386 15 5.5Z" fill="#03254D"/>
<path fill-rule="evenodd" clip-rule="evenodd" d="M13 7.5C13 7.77614 12.8815 8 12.7353 8H4.26471C4.11851 8 4 7.77614 4 7.5C4 7.22386 4.11851 7 4.26471 7H12.7353C12.8815 7 13 7.22386 13 7.5Z" fill="#03254D"/>
<path fill-rule="evenodd" clip-rule="evenodd" d="M5 9.5C5 9.77614 4.98683 10 4.97059 10H4.02941C4.01317 10 4 9.77614 4 9.5C4 9.22386 4.01317 9 4.02941 9H4.97059C4.98683 9 5 9.22386 5 9.5Z" fill="#03254D"/>
<path fill-rule="evenodd" clip-rule="evenodd" d="M7 9.5C7 9.77614 6.98683 10 6.97059 10H6.02941C6.01317 10 6 9.77614 6 9.5C6 9.22386 6.01317 9 6.02941 9H6.97059C6.98683 9 7 9.22386 7 9.5Z" fill="#03254D"/>
<path fill-rule="evenodd" clip-rule="evenodd" d="M9 9.5C9 9.77614 8.98683 10 8.97059 10H8.02941C8.01317 10 8 9.77614 8 9.5C8 9.22386 8.01317 9 8.02941 9H8.97059C8.98683 9 9 9.22386 9 9.5Z" fill="#03254D"/>
<path fill-rule="evenodd" clip-rule="evenodd" d="M11 9.5C11 9.77614 10.9868 10 10.9706 10H10.0294C10.0132 10 10 9.77614 10 9.5C10 9.22386 10.0132 9 10.0294 9H10.9706C10.9868 9 11 9.22386 11 9.5Z" fill="#03254D"/>
<path fill-rule="evenodd" clip-rule="evenodd" d="M13 9.5C13 9.77614 12.9868 10 12.9706 10H12.0294C12.0132 10 12 9.77614 12 9.5C12 9.22386 12.0132 9 12.0294 9H12.9706C12.9868 9 13 9.22386 13 9.5Z" fill="#03254D"/>
<path fill-rule="evenodd" clip-rule="evenodd" d="M5 11.5C5 11.7761 4.98683 12 4.97059 12H4.02941C4.01317 12 4 11.7761 4 11.5C4 11.2239 4.01317 11 4.02941 11H4.97059C4.98683 11 5 11.2239 5 11.5Z" fill="#03254D"/>
<path fill-rule="evenodd" clip-rule="evenodd" d="M7 11.5C7 11.7761 6.98683 12 6.97059 12H6.02941C6.01317 12 6 11.7761 6 11.5C6 11.2239 6.01317 11 6.02941 11H6.97059C6.98683 11 7 11.2239 7 11.5Z" fill="#03254D"/>
<path fill-rule="evenodd" clip-rule="evenodd" d="M9 11.5C9 11.7761 8.98683 12 8.97059 12H8.02941C8.01317 12 8 11.7761 8 11.5C8 11.2239 8.01317 11 8.02941 11H8.97059C8.98683 11 9 11.2239 9 11.5Z" fill="#03254D"/>
<path fill-rule="evenodd" clip-rule="evenodd" d="M11 11.5C11 11.7761 10.9868 12 10.9706 12H10.0294C10.0132 12 10 11.7761 10 11.5C10 11.2239 10.0132 11 10.0294 11H10.9706C10.9868 11 11 11.2239 11 11.5Z" fill="#03254D"/>
<path fill-rule="evenodd" clip-rule="evenodd" d="M13 11.5C13 11.7761 12.9868 12 12.9706 12H12.0294C12.0132 12 12 11.7761 12 11.5C12 11.2239 12.0132 11 12.0294 11H12.9706C12.9868 11 13 11.2239 13 11.5Z" fill="#03254D"/>
<path fill-rule="evenodd" clip-rule="evenodd" d="M13 4.5C13 5.32842 12.9737 6 12.9412 6H11.0588C11.0263 6 11 5.32842 11 4.5C11 3.67158 11.0263 3 11.0588 3H12.9412C12.9737 3 13 3.67158 13 4.5Z" fill="#03254D"/>
<path fill-rule="evenodd" clip-rule="evenodd" d="M15 14.5C15 14.7761 14.8288 15 14.6176 15H2.38235C2.17119 15 2 14.7761 2 14.5C2 14.2239 2.17119 14 2.38235 14H14.6176C14.8288 14 15 14.2239 15 14.5Z" fill="#03254D"/>
</svg>
