<svg width="20" height="20" viewBox="0 0 20 20" fill="none" xmlns="http://www.w3.org/2000/svg">
<path fill-rule="evenodd" clip-rule="evenodd" d="M11.9819 14.4387C10.7765 15.1984 9.34898 15.638 7.81881 15.638C3.5006 15.638 0 12.1373 0 7.81899C0 3.50068 3.5006 0 7.81881 0C12.137 0 15.6376 3.50068 15.6376 7.81899C15.6376 9.34877 15.1983 10.7759 14.439 11.9812L19.4914 17.0337C20.1699 17.7123 20.1699 18.8124 19.4914 19.491C18.8128 20.1695 17.7127 20.1695 17.0341 19.491L11.9819 14.4387ZM13.031 7.81886C13.031 10.6977 10.6973 13.0315 7.8185 13.0315C4.93969 13.0315 2.60596 10.6977 2.60596 7.81886C2.60596 4.93999 4.93969 2.6062 7.8185 2.6062C10.6973 2.6062 13.031 4.93999 13.031 7.81886Z" fill="#8C8C8C"/>
</svg>
