<svg width="17" height="18" viewBox="0 0 17 18" fill="none" xmlns="http://www.w3.org/2000/svg">
<path fill-rule="evenodd" clip-rule="evenodd" d="M13.4031 14.5105C13.4022 14.7867 13.2705 15.0101 13.109 15.0096L3.74902 14.9807C3.58747 14.9802 3.45721 14.7559 3.45806 14.4798C3.45892 14.2036 3.59057 13.9802 3.75211 13.9807L13.1121 14.0096C13.2736 14.0101 13.4039 14.2344 13.4031 14.5105Z" fill="#03254D"/>
<path fill-rule="evenodd" clip-rule="evenodd" d="M13.3149 3.21432C13.3145 3.31678 13.1848 3.39944 13.025 3.39895L3.76934 3.37032C3.6096 3.36983 3.48036 3.28637 3.48067 3.18391C3.48099 3.08145 3.61074 2.99878 3.77049 2.99928L13.0262 3.0279C13.1859 3.0284 13.3152 3.11186 13.3149 3.21432Z" fill="#03254D"/>
<path fill-rule="evenodd" clip-rule="evenodd" d="M13.2941 3.54499C13.2937 3.69852 13.1683 3.82259 13.0143 3.82212L4.08617 3.7945C3.93208 3.79403 3.80755 3.66918 3.80802 3.51566C3.8085 3.36213 3.9338 3.23806 4.08789 3.23853L13.016 3.26615C13.1701 3.26662 13.2946 3.39147 13.2941 3.54499Z" fill="#03254D"/>
<path fill-rule="evenodd" clip-rule="evenodd" d="M13.2941 4.04191C13.2934 4.2457 13.1969 4.41061 13.0784 4.41024L6.21501 4.38901C6.09655 4.38865 6.00104 4.22314 6.00167 4.01936C6.0023 3.81557 6.09883 3.65066 6.21729 3.65102L13.0807 3.67225C13.1992 3.67262 13.2947 3.83812 13.2941 4.04191Z" fill="#03254D"/>
<path fill-rule="evenodd" clip-rule="evenodd" d="M12.5352 6.01307C12.4648 6.04649 12.3953 6.04748 12.3801 6.01528L11.4939 4.14913C11.4786 4.11692 11.5233 4.06371 11.5937 4.03028C11.6641 3.99686 11.7335 3.99587 11.7488 4.02807L12.635 5.89422C12.6503 5.92643 12.6056 5.97964 12.5352 6.01307Z" fill="#03254D"/>
<path fill-rule="evenodd" clip-rule="evenodd" d="M13.1598 6.1156C13.0738 6.11553 13.0042 6.07438 13.0042 6.0237L13.0066 3.08675C13.0067 3.03606 13.0764 2.99502 13.1624 2.9951C13.2483 2.99517 13.318 3.03632 13.318 3.087L13.3155 6.02395C13.3155 6.07463 13.2458 6.11568 13.1598 6.1156Z" fill="#03254D"/>
<path fill-rule="evenodd" clip-rule="evenodd" d="M13.3236 6.00396C13.3236 6.06875 13.311 6.12128 13.2953 6.12128L12.39 6.12156C12.3744 6.12157 12.3617 6.06905 12.3617 6.00425C12.3616 5.93946 12.3743 5.88693 12.3899 5.88692L13.2953 5.88664C13.3109 5.88664 13.3236 5.93916 13.3236 6.00396Z" fill="#03254D"/>
<path fill-rule="evenodd" clip-rule="evenodd" d="M13.0829 5.11249C13.0831 5.56922 13.074 5.93949 13.0627 5.93949L12.4064 5.93969C12.395 5.9397 12.3857 5.56944 12.3856 5.1127C12.3855 4.65597 12.3945 4.2857 12.4059 4.2857L13.0622 4.2855C13.0735 4.28549 13.0828 4.65575 13.0829 5.11249Z" fill="#03254D"/>
<path fill-rule="evenodd" clip-rule="evenodd" d="M12.4903 4.58768C12.4903 4.75447 12.4827 4.88968 12.4733 4.88969L11.9268 4.88985C11.9174 4.88986 11.9097 4.75465 11.9096 4.58786C11.9096 4.42107 11.9172 4.28586 11.9266 4.28585L12.4731 4.28568C12.4825 4.28568 12.4902 4.42089 12.4903 4.58768Z" fill="#03254D"/>
<path fill-rule="evenodd" clip-rule="evenodd" d="M12.4903 4.83106C12.4904 5.13226 12.486 5.37644 12.4803 5.37644L12.1546 5.37654C12.149 5.37654 12.1444 5.13237 12.1443 4.83116C12.1442 4.52996 12.1487 4.28578 12.1543 4.28578L12.48 4.28568C12.4856 4.28568 12.4903 4.52985 12.4903 4.83106Z" fill="#03254D"/>
<path fill-rule="evenodd" clip-rule="evenodd" d="M13.5233 13.4926C13.5223 13.8291 13.4203 14.1017 13.2957 14.1013L6.07287 14.079C5.94821 14.0786 5.848 13.8054 5.84904 13.4688C5.85008 13.1322 5.95198 12.8597 6.07664 12.8601L13.2995 12.8824C13.4241 12.8828 13.5243 13.156 13.5233 13.4926Z" fill="#03254D"/>
<path fill-rule="evenodd" clip-rule="evenodd" d="M13.8738 10.9172C13.9844 10.9374 14.0645 11.007 14.0525 11.0725L13.3591 14.8718C13.3472 14.9373 13.2477 14.9741 13.1371 14.9539C13.0264 14.9337 12.9463 14.8642 12.9583 14.7986L13.6517 10.9994C13.6636 10.9338 13.7631 10.897 13.8738 10.9172Z" fill="#03254D"/>
<path fill-rule="evenodd" clip-rule="evenodd" d="M13.6424 11.1389C13.7924 11.2578 13.8796 11.3977 13.8371 11.4512L11.3764 14.5568C11.3339 14.6104 11.1778 14.5575 11.0278 14.4386C10.8777 14.3197 10.7905 14.1798 10.833 14.1262L13.2938 11.0207C13.3362 10.9671 13.4923 11.02 13.6424 11.1389Z" fill="#03254D"/>
<path fill-rule="evenodd" clip-rule="evenodd" d="M13.6817 10.903C13.8774 10.9044 14.0359 10.9089 14.0359 10.9129L14.0342 11.147C14.0341 11.151 13.8755 11.1532 13.6799 11.1517C13.4843 11.1503 13.3257 11.1458 13.3258 11.1418L13.3275 10.9077C13.3275 10.9036 13.4861 10.9015 13.6817 10.903Z" fill="#03254D"/>
<path fill-rule="evenodd" clip-rule="evenodd" d="M13.6565 11.6921C13.7485 11.765 13.8082 11.843 13.7898 11.8662L12.7232 13.2122C12.7048 13.2354 12.6153 13.1951 12.5233 13.1223C12.4313 13.0494 12.3717 12.9714 12.3901 12.9482L13.4566 11.6022C13.475 11.579 13.5645 11.6192 13.6565 11.6921Z" fill="#03254D"/>
<path fill-rule="evenodd" clip-rule="evenodd" d="M13.4552 12.2551C13.633 12.396 13.7623 12.5291 13.7439 12.5523L12.6773 13.8983C12.6589 13.9216 12.4998 13.8262 12.322 13.6853C12.1442 13.5444 12.0149 13.4113 12.0333 13.3881L13.0999 12.0421C13.1183 12.0188 13.2774 12.1142 13.4552 12.2551Z" fill="#03254D"/>
<path fill-rule="evenodd" clip-rule="evenodd" d="M9.91061 7.60232C10.1242 7.7825 10.2214 8.01866 10.1276 8.12975L4.69679 14.5674C4.60306 14.6785 4.35392 14.6225 4.14033 14.4423C3.92674 14.2621 3.82957 14.026 3.9233 13.9149L9.35415 7.47723C9.44787 7.36614 9.69702 7.42213 9.91061 7.60232Z" fill="#03254D"/>
<path fill-rule="evenodd" clip-rule="evenodd" d="M3.57151 3.14621C3.6701 3.06251 3.82071 3.0779 3.90787 3.18057L8.95851 9.12983C9.04568 9.23251 9.03642 9.3836 8.93782 9.46731C8.83922 9.55101 8.68863 9.53563 8.60146 9.43295L3.55081 3.48369C3.46366 3.38103 3.47291 3.22992 3.57151 3.14621Z" fill="#03254D"/>
<path fill-rule="evenodd" clip-rule="evenodd" d="M4.17853 3.15155C4.27713 3.06785 4.42774 3.08324 4.51489 3.18591L9.56554 9.13517C9.65271 9.23785 9.64344 9.38894 9.54484 9.47265C9.44625 9.55635 9.29565 9.54097 9.20849 9.43829L4.15784 3.48903C4.07068 3.38637 4.07993 3.23526 4.17853 3.15155Z" fill="#03254D"/>
<path fill-rule="evenodd" clip-rule="evenodd" d="M5.09484 3.22261C5.27889 3.06636 5.48816 3.01044 5.56223 3.09769L9.85452 8.15367C9.9286 8.24093 9.83945 8.43833 9.6554 8.59458C9.47135 8.75083 9.26209 8.80676 9.18801 8.7195L4.89572 3.66352C4.82165 3.57628 4.91079 3.37886 5.09484 3.22261Z" fill="#03254D"/>
<path fill-rule="evenodd" clip-rule="evenodd" d="M6.11935 3.46453C6.26372 3.34197 6.43872 3.31088 6.5102 3.39508L10.6523 8.27421C10.7238 8.35842 10.6648 8.52604 10.5204 8.6486C10.376 8.77117 10.201 8.80226 10.1295 8.71806L5.98738 3.83893C5.9159 3.75473 5.97497 3.5871 6.11935 3.46453Z" fill="#03254D"/>
<path fill-rule="evenodd" clip-rule="evenodd" d="M10.3348 8.11556C10.5484 8.29574 10.653 8.52308 10.5684 8.6233L5.66919 14.4308C5.58463 14.531 5.34293 14.4662 5.12934 14.286C4.91575 14.1058 4.81115 13.8785 4.8957 13.7782L9.79493 7.97078C9.87947 7.87056 10.1212 7.93537 10.3348 8.11556Z" fill="#03254D"/>
</svg>
