<svg width="47" height="47" viewBox="0 0 47 47" fill="none" xmlns="http://www.w3.org/2000/svg">
<path fill-rule="evenodd" clip-rule="evenodd" d="M31.7113 0.573583C32.4411 -0.191194 33.6244 -0.191194 34.3543 0.573583L42.4526 9.05969C43.1825 9.82447 43.1825 11.0644 42.4526 11.8292L16.9116 38.5931C16.5612 38.9603 16.0858 39.1667 15.5902 39.1667H6.86885C5.83671 39.1667 5 38.2899 5 37.2083V29.375C5 28.8556 5.1969 28.3575 5.54737 27.9903L31.7113 0.573583ZM30.6921 7.18056L36.1475 12.8972L38.4882 10.4444L33.0328 4.72783L30.6921 7.18056ZM33.5046 15.6667L28.0492 9.95006L8.7377 30.1862V35.25H14.8161L33.5046 15.6667ZM5 45.0417C5 43.9601 5.83671 43.0833 6.86885 43.0833H41.1311C42.1633 43.0833 43 43.9601 43 45.0417C43 46.1232 42.1633 47 41.1311 47H6.86885C5.83671 47 5 46.1232 5 45.0417Z" fill="#F178B6"/>
</svg>
