<svg width="17" height="18" viewBox="0 0 17 18" fill="none" xmlns="http://www.w3.org/2000/svg">
<path fill-rule="evenodd" clip-rule="evenodd" d="M3.5 16C3.22386 16 3 15.8156 3 15.5882V2.41176C3 2.18435 3.22386 2 3.5 2C3.77614 2 4 2.18435 4 2.41176V15.5882C4 15.8156 3.77614 16 3.5 16Z" fill="#03254D"/>
<path fill-rule="evenodd" clip-rule="evenodd" d="M13.5 16C13.2239 16 13 15.8551 13 15.6765V5.32353C13 5.14485 13.2239 5 13.5 5C13.7761 5 14 5.14485 14 5.32353V15.6765C14 15.8551 13.7761 16 13.5 16Z" fill="#03254D"/>
<path fill-rule="evenodd" clip-rule="evenodd" d="M10.5 6C10.2239 6 10 5.94732 10 5.88235V2.11765C10 2.05267 10.2239 2 10.5 2C10.7761 2 11 2.05267 11 2.11765V5.88235C11 5.94732 10.7761 6 10.5 6Z" fill="#03254D"/>
<path fill-rule="evenodd" clip-rule="evenodd" d="M11 2.5C11 2.77614 10.8946 3 10.7647 3H3.23529C3.10534 3 3 2.77614 3 2.5C3 2.22386 3.10534 2 3.23529 2H10.7647C10.8946 2 11 2.22386 11 2.5Z" fill="#03254D"/>
<path fill-rule="evenodd" clip-rule="evenodd" d="M9 4.5C9 4.77614 8.94732 5 8.88235 5H5.11765C5.05267 5 5 4.77614 5 4.5C5 4.22386 5.05267 4 5.11765 4H8.88235C8.94732 4 9 4.22386 9 4.5Z" fill="#03254D"/>
<path fill-rule="evenodd" clip-rule="evenodd" d="M9 6.5C9 6.77614 8.94732 7 8.88235 7H5.11765C5.05267 7 5 6.77614 5 6.5C5 6.22386 5.05267 6 5.11765 6H8.88235C8.94732 6 9 6.22386 9 6.5Z" fill="#03254D"/>
<path fill-rule="evenodd" clip-rule="evenodd" d="M12 8.5C12 8.77614 11.9078 9 11.7941 9H5.20588C5.09218 9 5 8.77614 5 8.5C5 8.22386 5.09218 8 5.20588 8H11.7941C11.9078 8 12 8.22386 12 8.5Z" fill="#03254D"/>
<path fill-rule="evenodd" clip-rule="evenodd" d="M12 10.5C12 10.7761 11.9078 11 11.7941 11H5.20588C5.09218 11 5 10.7761 5 10.5C5 10.2239 5.09218 10 5.20588 10H11.7941C11.9078 10 12 10.2239 12 10.5Z" fill="#03254D"/>
<path fill-rule="evenodd" clip-rule="evenodd" d="M12 12.5C12 12.7761 11.9078 13 11.7941 13H5.20588C5.09218 13 5 12.7761 5 12.5C5 12.2239 5.09218 12 5.20588 12H11.7941C11.9078 12 12 12.2239 12 12.5Z" fill="#03254D"/>
<path fill-rule="evenodd" clip-rule="evenodd" d="M14 15.5C14 15.7761 13.8551 16 13.6765 16H3.32353C3.14485 16 3 15.7761 3 15.5C3 15.2239 3.14485 15 3.32353 15H13.6765C13.8551 15 14 15.2239 14 15.5Z" fill="#03254D"/>
<path fill-rule="evenodd" clip-rule="evenodd" d="M14 5.5C14 5.77614 13.9473 6 13.8824 6H10.1176C10.0527 6 10 5.77614 10 5.5C10 5.22386 10.0527 5 10.1176 5H13.8824C13.9473 5 14 5.22386 14 5.5Z" fill="#03254D"/>
<path fill-rule="evenodd" clip-rule="evenodd" d="M13.6613 5.55733C13.4373 5.78129 13.2129 5.91996 13.16 5.86709L10.0958 2.80286C10.0429 2.74998 10.1816 2.52555 10.4055 2.30159C10.6295 2.07763 10.8539 1.93894 10.9068 1.99183L13.971 5.05605C14.0239 5.10893 13.8852 5.33337 13.6613 5.55733Z" fill="#03254D"/>
</svg>
