<svg width="17" height="18" viewBox="0 0 17 18" fill="none" xmlns="http://www.w3.org/2000/svg">
<path fill-rule="evenodd" clip-rule="evenodd" d="M13 13.5C13 13.7761 12.8815 14 12.7353 14H4.26471C4.11851 14 4 13.7761 4 13.5C4 13.2239 4.11851 13 4.26471 13H12.7353C12.8815 13 13 13.2239 13 13.5Z" fill="#03254D"/>
<path fill-rule="evenodd" clip-rule="evenodd" d="M4.5 14C4.22386 14 4 13.921 4 13.8235V8.17647C4 8.07901 4.22386 8 4.5 8C4.77614 8 5 8.07901 5 8.17647V13.8235C5 13.921 4.77614 14 4.5 14Z" fill="#03254D"/>
<path fill-rule="evenodd" clip-rule="evenodd" d="M12.5 14C12.2239 14 12 13.921 12 13.8235V8.17647C12 8.07901 12.2239 8 12.5 8C12.7761 8 13 8.07901 13 8.17647V13.8235C13 13.921 12.7761 14 12.5 14Z" fill="#03254D"/>
<path fill-rule="evenodd" clip-rule="evenodd" d="M8.74292 4.36575C8.85962 4.61601 8.86439 4.86079 8.75362 4.91244L2.33422 7.90586C2.22343 7.95752 2.03901 7.79652 1.92231 7.54625C1.80561 7.29598 1.80081 7.05121 1.9116 6.99955L8.331 4.00614C8.44178 3.95448 8.62621 4.11548 8.74292 4.36575Z" fill="#03254D"/>
<path fill-rule="evenodd" clip-rule="evenodd" d="M8.04725 4.37664C7.93054 4.62691 7.92613 4.87185 8.03736 4.92372L14.4828 7.92927C14.594 7.98114 14.7788 7.8203 14.8955 7.57004C15.0122 7.31977 15.0166 7.07483 14.9054 7.02296L8.45998 4.01741C8.34875 3.96555 8.16395 4.12637 8.04725 4.37664Z" fill="#03254D"/>
<path fill-rule="evenodd" clip-rule="evenodd" d="M8.07387 10.4756C7.95716 10.2253 7.95323 9.98015 8.06503 9.92801L14.5443 6.90669C14.6561 6.85455 14.8414 7.01516 14.9581 7.26543C15.0748 7.5157 15.0787 7.76085 14.9669 7.813L8.48765 10.8343C8.37584 10.8865 8.19057 10.7259 8.07387 10.4756Z" fill="#03254D"/>
<path fill-rule="evenodd" clip-rule="evenodd" d="M8.76829 10.5107C8.88499 10.2604 8.88834 10.015 8.77581 9.96253L2.25461 6.92165C2.14206 6.86916 1.95622 7.0295 1.83951 7.27977C1.72281 7.53004 1.71944 7.77547 1.83199 7.82795L8.35319 10.8688C8.46572 10.9213 8.65158 10.761 8.76829 10.5107Z" fill="#03254D"/>
</svg>
