<svg width="47" height="47" viewBox="0 0 47 47" fill="none" xmlns="http://www.w3.org/2000/svg">
<path fill-rule="evenodd" clip-rule="evenodd" d="M19.2275 22.963C19.2275 15.2514 25.4446 9 33.1138 9C40.783 9 47.0001 15.2514 47.0001 22.963V24.037C47.0001 31.7486 40.783 38 33.1138 38C25.4446 38 19.2275 31.7486 19.2275 24.037V22.963ZM33.1138 12.2222C27.2144 12.2222 22.4321 17.031 22.4321 22.963V24.037C22.4321 29.969 27.2144 34.7778 33.1138 34.7778C39.0132 34.7778 43.7956 29.969 43.7956 24.037V22.963C43.7956 17.031 39.0132 12.2222 33.1138 12.2222Z" fill="#F178B6"/>
<path fill-rule="evenodd" clip-rule="evenodd" d="M9.10155 17.6167C9.67849 17.0366 10.6139 17.0366 11.1908 17.6167L15.9976 22.4501C16.5745 23.0302 16.5745 23.9707 15.9976 24.5509L10.6567 29.9212C10.0798 30.5014 9.1444 30.5014 8.56747 29.9212C7.99053 29.3411 7.99053 28.4006 8.56747 27.8204L12.8637 23.5005L9.10155 19.7175C8.52462 19.1374 8.52462 18.1969 9.10155 17.6167Z" fill="#F178B6"/>
<path fill-rule="evenodd" clip-rule="evenodd" d="M40.1406 19.8857C40.6503 20.5263 40.547 21.4611 39.9099 21.9736L31.8986 28.4181C31.3108 28.8909 30.4634 28.8438 29.9311 28.3085L26.1925 24.5493C25.6155 23.9691 25.6155 23.0286 26.1925 22.4485C26.7694 21.8683 27.7048 21.8683 28.2817 22.4485L31.0854 25.2676L38.0641 19.6537C38.7013 19.1412 39.6309 19.2451 40.1406 19.8857Z" fill="#F178B6"/>
<path fill-rule="evenodd" clip-rule="evenodd" d="M19.8843 34.5863C19.4101 33.9538 18.5495 33.7355 17.8172 34.0271C16.6005 34.5116 15.2743 34.7778 13.8863 34.7778C7.9869 34.7778 3.20452 29.969 3.20452 24.037V22.963C3.20452 17.031 7.9869 12.2222 13.8863 12.2222C15.2743 12.2222 16.6005 12.4884 17.8172 12.9729C18.5495 13.2645 19.4101 13.0462 19.8843 12.4137C20.4519 11.6567 20.3025 10.5402 19.4384 10.1608C17.7381 9.41417 15.8603 9 13.8863 9C6.21709 9 0 15.2514 0 22.963V24.037C0 31.7486 6.21709 38 13.8863 38C15.8603 38 17.7381 37.5858 19.4384 36.8392C20.3025 36.4598 20.4519 35.3433 19.8843 34.5863Z" fill="#F178B6"/>
</svg>
