<svg width="37" height="47" viewBox="0 0 37 47" fill="none" xmlns="http://www.w3.org/2000/svg">
<path fill-rule="evenodd" clip-rule="evenodd" d="M6.87143 3.20455C4.82797 3.20455 3.17143 4.87839 3.17143 6.94318V40.0568C3.17143 42.1216 4.82798 43.7955 6.87143 43.7955H30.1286C32.172 43.7955 33.8286 42.1216 33.8286 40.0568V17.4513H26.6481C22.8531 17.4513 19.7767 14.3427 19.7767 10.5081V3.20455H6.87143ZM22.9481 5.47977L31.5952 14.2467H26.6481C24.6047 14.2467 22.9481 12.5729 22.9481 10.5081V5.47977ZM0 6.94318C0 3.10857 3.07644 0 6.87143 0H22.0208L37 15.1869V40.0568C37 43.8914 33.9236 47 30.1286 47H6.87143C3.07644 47 0 43.8914 0 40.0568V6.94318ZM7.28615 15.849C7.28615 14.9641 7.9961 14.2467 8.87187 14.2467H15.1171C15.9929 14.2467 16.7029 14.9641 16.7029 15.849C16.7029 16.7339 15.9929 17.4513 15.1171 17.4513H8.87187C7.9961 17.4513 7.28615 16.7339 7.28615 15.849ZM7.28615 24.8191C7.28615 23.9342 7.9961 23.2169 8.87187 23.2169H27.0873C27.963 23.2169 28.673 23.9342 28.673 24.8191C28.673 25.7041 27.963 26.4214 27.0873 26.4214H8.87187C7.9961 26.4214 7.28615 25.7041 7.28615 24.8191ZM7.28615 33.7893C7.28615 32.9044 7.9961 32.187 8.87187 32.187H27.0873C27.963 32.187 28.673 32.9044 28.673 33.7893C28.673 34.6742 27.963 35.3916 27.0873 35.3916H8.87187C7.9961 35.3916 7.28615 34.6742 7.28615 33.7893Z" fill="#F178B6"/>
</svg>
