<svg width="15" height="16" viewBox="0 0 15 16" fill="none" xmlns="http://www.w3.org/2000/svg">
<circle cx="7.50019" cy="4.13166" r="3.36835" stroke="#03254D"/>
<mask id="path-2-inside-1_35_459" fill="white">
<path fill-rule="evenodd" clip-rule="evenodd" d="M12.9267 15.7365C13.5848 15.7365 14.1815 15.2842 14.1815 14.6261C14.1815 11.5595 11.19 9.07349 7.49992 9.07349C3.80979 9.07349 0.818359 11.5595 0.818359 14.6261C0.818359 15.2842 1.41499 15.7365 2.07308 15.7365H12.9267Z"/>
</mask>
<path d="M7.49992 10.0735C10.819 10.0735 13.1815 12.2771 13.1815 14.6261H15.1815C15.1815 10.8419 11.5611 8.07349 7.49992 8.07349V10.0735ZM1.81836 14.6261C1.81836 12.2771 4.18084 10.0735 7.49992 10.0735V8.07349C3.43874 8.07349 -0.181641 10.8419 -0.181641 14.6261H1.81836ZM2.07308 16.7365H12.9267V14.7365H2.07308V16.7365ZM-0.181641 14.6261C-0.181641 15.9887 1.02826 16.7365 2.07308 16.7365V14.7365C1.96642 14.7365 1.88474 14.6984 1.84396 14.664C1.8257 14.6486 1.82029 14.6381 1.81961 14.6368C1.8192 14.6359 1.81914 14.6357 1.81907 14.6353C1.81902 14.6351 1.81836 14.6324 1.81836 14.6261H-0.181641ZM13.1815 14.6261C13.1815 14.6324 13.1808 14.6351 13.1808 14.6353C13.1807 14.6357 13.1806 14.6359 13.1802 14.6368C13.1795 14.6381 13.1741 14.6486 13.1559 14.664C13.1151 14.6984 13.0334 14.7365 12.9267 14.7365V16.7365C13.9716 16.7365 15.1815 15.9887 15.1815 14.6261H13.1815Z" fill="#03254D" mask="url(#path-2-inside-1_35_459)"/>
</svg>
