<svg width="15" height="16" viewBox="0 0 15 16" fill="none" xmlns="http://www.w3.org/2000/svg">
<circle cx="7.50019" cy="4.13172" r="3.36835" stroke="white"/>
<mask id="path-2-inside-1_76_42" fill="white">
<path fill-rule="evenodd" clip-rule="evenodd" d="M12.9267 15.7367C13.5848 15.7367 14.1815 15.2844 14.1815 14.6263C14.1815 11.5596 11.19 9.07361 7.49992 9.07361C3.80979 9.07361 0.818359 11.5596 0.818359 14.6263C0.818359 15.2844 1.41499 15.7367 2.07308 15.7367H12.9267Z"/>
</mask>
<path d="M7.49992 10.0736C10.819 10.0736 13.1815 12.2772 13.1815 14.6263H15.1815C15.1815 10.842 11.5611 8.07361 7.49992 8.07361V10.0736ZM1.81836 14.6263C1.81836 12.2772 4.18084 10.0736 7.49992 10.0736V8.07361C3.43874 8.07361 -0.181641 10.842 -0.181641 14.6263H1.81836ZM2.07308 16.7367H12.9267V14.7367H2.07308V16.7367ZM-0.181641 14.6263C-0.181641 15.9888 1.02826 16.7367 2.07308 16.7367V14.7367C1.96642 14.7367 1.88474 14.6985 1.84396 14.6641C1.8257 14.6487 1.82029 14.6383 1.81961 14.6369C1.8192 14.636 1.81914 14.6358 1.81907 14.6355C1.81902 14.6352 1.81836 14.6325 1.81836 14.6263H-0.181641ZM13.1815 14.6263C13.1815 14.6325 13.1808 14.6352 13.1808 14.6355C13.1807 14.6358 13.1806 14.636 13.1802 14.6369C13.1795 14.6383 13.1741 14.6487 13.1559 14.6641C13.1151 14.6985 13.0334 14.7367 12.9267 14.7367V16.7367C13.9716 16.7367 15.1815 15.9888 15.1815 14.6263H13.1815Z" fill="white" mask="url(#path-2-inside-1_76_42)"/>
</svg>
