<svg width="17" height="19" viewBox="0 0 17 19" fill="none" xmlns="http://www.w3.org/2000/svg">
<path fill-rule="evenodd" clip-rule="evenodd" d="M8.5 8C10.433 8 12 6.433 12 4.5C12 2.567 10.433 1 8.5 1C6.567 1 5 2.567 5 4.5C5 6.433 6.567 8 8.5 8ZM8.5 9C10.9853 9 13 6.98528 13 4.5C13 2.01472 10.9853 0 8.5 0C6.01472 0 4 2.01472 4 4.5C4 6.98528 6.01472 9 8.5 9Z" fill="#03254D"/>
<path fill-rule="evenodd" clip-rule="evenodd" d="M9.38461 10.5H7.5C3.91015 10.5 1 13.4101 1 17C1 17.2761 1.22386 17.5 1.5 17.5H15.6154C15.8278 17.5 16 17.3278 16 17.1154C16 13.4618 13.0382 10.5 9.38461 10.5ZM7.5 9.5C3.35786 9.5 0 12.8579 0 17C0 17.8284 0.671573 18.5 1.5 18.5H15.6154C16.3801 18.5 17 17.8801 17 17.1154C17 12.9095 13.5905 9.5 9.38461 9.5H7.5Z" fill="#03254D"/>
</svg>
