<svg width="47" height="47" viewBox="0 0 47 47" fill="none" xmlns="http://www.w3.org/2000/svg">
<path fill-rule="evenodd" clip-rule="evenodd" d="M6.78889 7.16216C4.76998 7.16216 3.13333 8.81387 3.13333 10.8514V36.1486C3.13333 38.1861 4.76998 39.8378 6.78889 39.8378H40.2111C42.23 39.8378 43.8667 38.1861 43.8667 36.1486V10.8514C43.8667 8.81387 42.23 7.16216 40.2111 7.16216H6.78889ZM0 10.8514C0 7.06745 3.03949 4 6.78889 4H40.2111C43.9605 4 47 7.06746 47 10.8514V36.1486C47 39.9325 43.9605 43 40.2111 43H6.78889C3.03949 43 0 39.9325 0 36.1486V10.8514ZM6.78889 11.9054C6.78889 11.0322 7.49031 10.3243 8.35556 10.3243H14.1C14.9652 10.3243 15.6667 11.0322 15.6667 11.9054C15.6667 12.7786 14.9652 13.4865 14.1 13.4865H8.35556C7.49031 13.4865 6.78889 12.7786 6.78889 11.9054ZM18.8 11.9054C18.8 11.0322 19.5014 10.3243 20.3667 10.3243H26.6333C27.4986 10.3243 28.2 11.0322 28.2 11.9054C28.2 12.7786 27.4986 13.4865 26.6333 13.4865H20.3667C19.5014 13.4865 18.8 12.7786 18.8 11.9054ZM31.3333 11.9054C31.3333 11.0322 32.0348 10.3243 32.9 10.3243H38.6444C39.5097 10.3243 40.2111 11.0322 40.2111 11.9054C40.2111 12.7786 39.5097 13.4865 38.6444 13.4865H32.9C32.0348 13.4865 31.3333 12.7786 31.3333 11.9054ZM21.9333 21.184V25.816L25.3757 23.5L21.9333 21.184ZM18.8 19.2145C18.8 17.5308 20.6594 16.5265 22.0476 17.4604L28.4173 21.7459C29.6575 22.5804 29.6575 24.4196 28.4173 25.2541L22.0476 29.5396C20.6594 30.4735 18.8 29.4692 18.8 27.7855V19.2145ZM6.78889 35.0946C6.78889 34.2214 7.49031 33.5135 8.35556 33.5135H14.1C14.9652 33.5135 15.6667 34.2214 15.6667 35.0946C15.6667 35.9678 14.9652 36.6757 14.1 36.6757H8.35556C7.49031 36.6757 6.78889 35.9678 6.78889 35.0946ZM18.8 35.0946C18.8 34.2214 19.5014 33.5135 20.3667 33.5135H26.6333C27.4986 33.5135 28.2 34.2214 28.2 35.0946C28.2 35.9678 27.4986 36.6757 26.6333 36.6757H20.3667C19.5014 36.6757 18.8 35.9678 18.8 35.0946ZM31.3333 35.0946C31.3333 34.2214 32.0348 33.5135 32.9 33.5135H38.6444C39.5097 33.5135 40.2111 34.2214 40.2111 35.0946C40.2111 35.9678 39.5097 36.6757 38.6444 36.6757H32.9C32.0348 36.6757 31.3333 35.9678 31.3333 35.0946Z" fill="#F178B6"/>
</svg>
