<svg width="40" height="40" viewBox="0 0 40 40" fill="none" xmlns="http://www.w3.org/2000/svg">
<g clip-path="url(#clip0_121_379)">
<path d="M37.1933 2.80667C34.3867 0 29.8683 0 20.8333 0H19.1667C10.1317 0 5.61333 0 2.80667 2.80667C0 5.61333 0 10.1317 0 19.1667V20.8333C0 29.8683 0 34.385 2.80667 37.1933C5.61333 40.0017 10.1317 40 19.1667 40H20.8333C29.8683 40 34.385 40 37.1933 37.1933C40 34.3867 40 29.8683 40 20.8333V19.1667C40 10.1317 40 5.61333 37.1933 2.80667ZM32.505 28.3333H29.5883C28.4767 28.3333 28.15 27.4467 26.1717 25.4683C24.44 23.8 23.6983 23.5833 23.2667 23.5833C22.6783 23.5833 22.5033 23.75 22.5033 24.5833V27.1983C22.5033 27.915 22.275 28.3333 20.42 28.3333C17.33 28.3333 13.9333 26.4567 11.5217 22.9967C7.905 17.9283 6.91667 14.0967 6.91667 13.325C6.91667 12.8917 7.08333 12.5 7.91667 12.5H10.835C11.58 12.5 11.86 12.8267 12.14 13.6333C13.5667 17.7883 15.9733 21.42 16.9617 21.42C17.3317 21.42 17.5017 21.2483 17.5017 20.3083V16.0133C17.3933 14.0367 16.3417 13.8733 16.3417 13.17C16.3417 12.845 16.62 12.5 17.0833 12.5H21.6683C22.2867 12.5 22.5017 12.83 22.5017 13.5717V19.35C22.5017 19.9667 22.77 20.1833 22.955 20.1833C23.3267 20.1833 23.635 19.9667 24.315 19.2867C26.4167 16.9383 27.9 13.3233 27.9 13.3233C28.0867 12.89 28.4267 12.4983 29.17 12.4983H32.0867C32.9683 12.4983 33.155 12.9517 32.9683 13.57C32.5967 15.27 29.0433 20.275 29.0433 20.275C28.7333 20.77 28.61 21.0167 29.0433 21.5733C29.3533 22.0067 30.3717 22.8717 31.0517 23.675C32.305 25.085 33.25 26.2733 33.5133 27.0933C33.7567 27.9167 33.3383 28.3333 32.505 28.3333Z" fill="#03254D"/>
</g>
<defs>
<clipPath id="clip0_121_379">
<rect width="40" height="40" fill="white"/>
</clipPath>
</defs>
</svg>
