<svg width="40" height="40" viewBox="0 0 40 40" fill="none" xmlns="http://www.w3.org/2000/svg">
<g clip-path="url(#clip0_118_346)">
<path fill-rule="evenodd" clip-rule="evenodd" d="M34.1047 5.81333C30.3614 2.06667 25.3847 0.00166667 20.0831 0C9.15806 0 0.266393 8.89 0.261393 19.82C0.259727 23.3133 1.17306 26.7233 2.90806 29.73L0.0947266 40L10.6014 37.2433C13.4964 38.8233 16.7564 39.655 20.0731 39.6567H20.0814C31.0047 39.6567 39.8981 30.765 39.9031 19.835C39.9064 14.54 37.8464 9.55833 34.1047 5.81333ZM20.0831 36.3083H20.0764C17.1197 36.3083 14.2214 35.5133 11.6914 34.0117L11.0897 33.655L4.85473 35.29L6.51973 29.21L6.12806 28.5867C4.47806 25.9633 3.60806 22.9317 3.60973 19.82C3.61306 10.7367 11.0047 3.34667 20.0914 3.34667C24.4914 3.34667 28.6281 5.06333 31.7381 8.17667C34.8481 11.2917 36.5597 15.43 36.5581 19.8317C36.5531 28.9183 29.1631 36.3083 20.0831 36.3083Z" fill="#03254D"/>
<path d="M25.7351 22.3584C26.1901 22.5234 28.6251 23.7217 29.1201 23.9701C29.6151 24.2184 29.9451 24.3417 30.0684 24.5501C30.1934 24.7551 30.1934 25.7484 29.7801 26.9051C29.3667 28.0617 27.3884 29.1184 26.4367 29.2601C25.5834 29.3867 24.5034 29.4401 23.3167 29.0634C22.5984 28.8351 21.6751 28.5301 20.4934 28.0201C15.5251 25.8751 12.2801 20.8717 12.0334 20.5417L12.0275 20.5339C11.7599 20.176 10.0117 17.8383 10.0117 15.4184C10.0117 12.9817 11.2917 11.7834 11.7451 11.2867C12.1984 10.7901 12.7351 10.6667 13.0651 10.6667C13.3967 10.6667 13.7267 10.6684 14.0151 10.6834C14.3201 10.6984 14.7284 10.5667 15.1301 11.5334C15.5417 12.5251 16.5317 14.9634 16.6567 15.2101C16.7817 15.4584 16.8634 15.7484 16.6984 16.0784C16.5317 16.4101 16.4501 16.6167 16.2001 16.9034C15.9517 17.1934 15.6801 17.5501 15.4567 17.7717C15.2101 18.0184 14.9517 18.2851 15.2401 18.7817C15.5284 19.2784 16.5234 20.9001 17.9951 22.2134C19.8867 23.9017 21.4834 24.4234 21.9784 24.6717C22.4734 24.9201 22.7634 24.8784 23.0517 24.5484C23.3417 24.2167 24.2884 23.1001 24.6201 22.6051C24.9517 22.1101 25.2817 22.1934 25.7351 22.3584Z" fill="#03254D"/>
</g>
<defs>
<clipPath id="clip0_118_346">
<rect width="40" height="40" fill="white"/>
</clipPath>
</defs>
</svg>
